<?xml version="1.0" encoding="utf-8"?>
<!-- Generator: Adobe Illustrator 19.2.1, SVG Export Plug-In . SVG Version: 6.00 Build 0)  -->
<svg version="1.1" xmlns="http://www.w3.org/2000/svg" xmlns:xlink="http://www.w3.org/1999/xlink" x="0px" y="0px"
	 viewBox="0 0 512 512" style="enable-background:new 0 0 512 512;" xml:space="preserve">
<style type="text/css">
	.st0{display:none;}
	.st1{display:inline;fill:none;stroke:#A01127;stroke-miterlimit:10;}
	.st2{fill:#1F3049;}
	.st3{fill:#E6CA56;}
	.st4{fill:#D5872A;}
	.st5{fill:#C9553E;}
	.st6{fill:#F5F5F5;}
	.st7{fill:#75A897;}
	.st8{fill:#FFFFFF;}
	.st9{fill:#E29E6F;}
	.st10{fill:#57646E;}
	.st11{fill:#8F9BA6;}
	.st12{fill:#F3F1E8;}
	.st13{fill:#E09E9A;}
	.st14{fill:#5E2D16;}
	.st15{fill:#32A57C;}
	.st16{fill:#858E96;}
	.st17{fill:#394755;}
	.st18{fill:#5082A9;}
	.st19{clip-path:url(#SVGID_2_);}
	.st20{clip-path:url(#SVGID_4_);fill:#E09E9A;}
	.st21{clip-path:url(#SVGID_4_);fill:#1F3049;}
	.st22{clip-path:url(#SVGID_4_);fill:#F5F5F5;}
	.st23{clip-path:url(#SVGID_4_);}
	.st24{fill:#9B6A57;}
	.st25{fill:#82492E;}
</style>
<g id="GUIDELINES" class="st0">
</g>
<g id="WORKSPACE" class="st0">
	<line id="XMLID_540_" class="st1" x1="486" y1="-4" x2="486" y2="516"/>
	<line id="XMLID_539_" class="st1" x1="-4" y1="26" x2="516" y2="26"/>
	<line id="XMLID_538_" class="st1" x1="-4" y1="486" x2="516" y2="486"/>
	<line id="XMLID_537_" class="st1" x1="26" y1="-4" x2="26" y2="516"/>
</g>
<g id="ICON">
</g>
<g id="Layer_6">
	<g>
		<circle class="st5" cx="256" cy="256" r="256"/>
		<g>
			<g>
				<g>
					<g>
						<path class="st2" d="M397,396.1c0,7.1-5.8,12.9-12.9,12.9H241.9c-7.1,0-12.9-5.8-12.9-12.9V100.9c0-7.1,5.8-12.9,12.9-12.9
							h142.2c7.1,0,12.9,5.8,12.9,12.9V396.1z"/>
					</g>
					<g>
						<rect x="241" y="131" class="st6" width="144" height="235"/>
					</g>
					<g>
						<path class="st7" d="M326,391c0,7.2-5.8,13-13,13c-7.2,0-13-5.8-13-13c0-7.2,5.8-13,13-13C320.2,378,326,383.8,326,391z"/>
					</g>
					<g>
						<rect x="285" y="103" class="st8" width="56" height="5"/>
					</g>
				</g>
			</g>
			<g>
				<g>
					<g>
						<path class="st2" d="M271,205h28v-28h-28V205z M275,181h20v20h-20V181z"/>
						<rect x="279" y="185" class="st2" width="12" height="12"/>
						<path class="st2" d="M327,177v28h28v-28H327z M351,201h-20v-20h20V201z"/>
						<path class="st2" d="M271,262h28v-29h-28V262z M275,237h20v21h-20V237z"/>
						<rect x="279" y="242" class="st2" width="12" height="12"/>
						<rect x="335" y="185" class="st2" width="12" height="12"/>
						<polygon class="st2" points="291,217 283,217 283,225 279,225 279,229 299,229 299,225 295,225 295,221 291,221 						"/>
						<rect x="295" y="217" class="st2" width="4" height="4"/>
						<polygon class="st2" points="287,213 287,209 279,209 279,217 283,217 283,213 						"/>
						<rect x="271" y="221" class="st2" width="4" height="8"/>
						<polygon class="st2" points="335,233 331,233 331,242 319,242 319,244.4 319,244.4 319,246 315,246 315,242 311,242 311,246 
							303,246 303,254 311,254 311,258 303,258 303,262 320,262 320,257.7 320,258 315,258 315,250 319,250 319,254 323,254 
							323,262 327,262 327,254 331,254 331,258 335,258 335,262 339,262 339,253 335,253 335,250 343,250 343,258 347,258 347,250 
							351,250 351,258 355,258 355,245.6 355,242.9 355,232 351,232 351,242.9 351,246 339,246 339,237 335,237 						"/>
						<path class="st2" d="M323,229v-12h8v-4h-27.7c-0.1,0-0.3,0-0.4,0h0.1v12h4v-8h4v8h-4v4h-4v13h8v-5h-4v-4h4v-4h4v8h8v-4h8v-4
							H323z"/>
						<polygon class="st2" points="339,221 327,221 327,225 331,225 331,229 335,229 335,225 339,225 339,237 343,237 343,229 
							347,229 347,217 343,217 343,213 355,213 355,209 339,209 						"/>
						<rect x="351" y="217" class="st2" width="4" height="12"/>
						<polygon class="st2" points="307,209 311,209 311,205 315,205 315,205 315,209 323,209 323,189 323,188.2 323,177 319,177 
							319,185 315,185 315,177 303,177 303,185 307,185 307,181 311,181 311,189 303,189 303,193 315,193 315,196 315,196 307,196 
							307,201 303,201 303,209 307,209 						"/>
					</g>
				</g>
				<g>
					<g>
						<polygon class="st5" points="288,274 258,274 258,244 263,244 263,269 288,269 						"/>
					</g>
					<g>
						<polygon class="st5" points="368,194 363,194 363,170 338,170 338,165 368,165 						"/>
					</g>
					<g>
						<polygon class="st5" points="263,194 258,194 258,165 288,165 288,170 263,170 						"/>
					</g>
					<g>
						<polygon class="st5" points="368,274 338,274 338,269 363,269 363,244 368,244 						"/>
					</g>
				</g>
			</g>
		</g>
		<g>
			<g>
				<path class="st5" d="M260.4,311.6c-0.8,50.4-42.2,90.6-92.6,89.8c-50.3-0.8-90.5-42.2-89.8-92.6c0.8-50.4,42.2-90.6,92.6-89.8
					C220.9,219.8,261.1,261.2,260.4,311.6z"/>
			</g>
			<g>
				<path class="st3" d="M250,311.2c-0.7,44.2-37,79.5-81.2,78.8c-44.2-0.7-79.4-37-78.8-81.2c0.7-44.2,37-79.4,81.2-78.8
					C215.4,230.7,250.7,267,250,311.2z"/>
			</g>
			<g>
				<g>
					<path class="st4" d="M234,311c-0.5,35.9-30.1,64.6-66,64c-35.9-0.5-64.5-30.1-64-66c0.5-35.9,30.1-64.6,66-64
						C205.9,245.6,234.5,275.1,234,311z"/>
				</g>
			</g>
			<g>
				<g>
					<g>
						<path class="st3" d="M137,334h9v-51h-9v-10h35.6c16,0,26.9,6.7,26.9,18.7c0,6.9-3.6,13.2-13.7,16.3c11,2.7,15.8,9.4,15.8,17.6
							c0,11.8-9.6,19.5-27.5,19.5H137V334z M171.7,303c9,0,14.2-3.8,14.2-10.2c0-6.3-5.2-9.8-13.3-9.8H160v20H171.7z M173.8,334
							c8.8,0,14.1-3.7,14.1-10.4c0-6.3-4.9-10.6-14.5-10.6H160v21H173.8z"/>
					</g>
				</g>
				<g>
					<g>
						<rect x="156" y="260" class="st3" width="9" height="20"/>
						<rect x="173" y="260" class="st3" width="10" height="20"/>
					</g>
					<g>
						<rect x="156" y="340" class="st3" width="9" height="20"/>
						<rect x="173" y="340" class="st3" width="10" height="20"/>
					</g>
				</g>
			</g>
		</g>
	</g>
</g>
</svg>
